<svg xmlns="http://www.w3.org/2000/svg" width="406" height="306" viewBox="0 0 406 306">
  <g>
    <path d="M162.1,257H45.75L33.31,169.47a15.94,15.94,0,0,1,13.54-18,15.48,15.48,0,0,1,2.25-.16h98Z" style="fill: #093f68"/>
    <path d="M162.1,258.52H45.75a1.48,1.48,0,0,1-1.48-1.26L31.83,169.68A17.43,17.43,0,0,1,46.66,150a16.41,16.41,0,0,1,2.42-.17h98a1.49,1.49,0,0,1,1.49,1.27l15,105.74a1.51,1.51,0,0,1-.35,1.19A1.48,1.48,0,0,1,162.1,258.52ZM47,255.56H160.38L145.79,152.78H49.1A14.43,14.43,0,0,0,34.65,167.2a13.14,13.14,0,0,0,.14,2.08Z" style="fill: #093f68"/>
    <path d="M101.32,164.91h27c12.86,0,26.91-2.34,36,8.88,4.07,5,5.15,12.16,7.64,18.09,3.89,9.24,10.37,24.71,21.16,27.72,21.48,5.92,42.82,2.76,42.95,2.73a13.33,13.33,0,1,1,4.19,26.33,127.6,127.6,0,0,1-18.53,1.21A135.52,135.52,0,0,1,186,245.28c-8.64-2.4-18.79-9.61-25.82-18.33l2.05,32.31H51.11V194C51.17,177.94,85.23,164.91,101.32,164.91Z" style="fill: #68e1fd"/>
    <path d="M162.21,260.79H51.14a1.49,1.49,0,0,1-1.48-1.49V194c0-17.67,36.23-30.58,51.61-30.58h27c1.87,0,3.76,0,5.67-.09,11.45-.31,23.27-.62,31.5,9.57,3,3.59,4.34,8.1,5.75,12.44.68,2.11,1.32,4.11,2.1,6v.18c3.76,8.89,10.06,23.9,20.13,26.66a113.92,113.92,0,0,0,42.37,2.71,14.81,14.81,0,0,1,4.65,29.25,130.93,130.93,0,0,1-18.77,1.23,135.87,135.87,0,0,1-36.16-4.65c-7.79-2.15-16.72-8.06-23.7-15.49l1.77,27.94a1.51,1.51,0,0,1-.4,1.11A1.47,1.47,0,0,1,162.21,260.79Zm-109.59-3h108L158.69,227a1.48,1.48,0,0,1,2.64-1c6.87,8.53,16.72,15.52,25.07,17.77a132.87,132.87,0,0,0,35.38,4.53,124.32,124.32,0,0,0,18.29-1.2,11.85,11.85,0,0,0,9.85-13.55h0a11.85,11.85,0,0,0-13.57-9.84,116.7,116.7,0,0,1-43.61-2.59c-11.45-3.17-18.1-19-22.07-28.39v-.19c-.84-2-1.48-4.15-2.21-6.22-1.3-4.1-2.66-8.32-5.22-11.49-7.3-9.07-17.91-8.79-29.12-8.47-1.92,0-3.85.08-5.75.08H101.3c-8.07,0-20.57,3.45-30.42,8.37-11.58,5.81-18.23,12.81-18.23,19.25Z" style="fill: #093f68"/>
    <path d="M85.31,257.34A1.48,1.48,0,0,1,83.83,256l-6.39-60a1.49,1.49,0,1,1,3-.31l6.39,60a1.48,1.48,0,0,1-1.31,1.63h0Z" style="fill: #093f68"/>
    <path d="M126.39,185.23s-3,44.34-6.74,54.19l-10.74-54.19Z" style="fill: #093f68"/>
    <path d="M119.65,240.9h-.13a1.49,1.49,0,0,1-1.32-1.19l-10.74-54.14a1.49,1.49,0,0,1,1.18-1.74,1,1,0,0,1,.3,0h17.48a1.46,1.46,0,0,1,1.08.45,1.59,1.59,0,0,1,.4,1.12c-.13,1.82-3.05,44.68-6.84,54.63A1.49,1.49,0,0,1,119.65,240.9Zm-8.88-54.19,9.1,45.91c2.52-13.33,4.45-39.32,5-45.91Z" style="fill: #093f68"/>
    <path d="M92.25,259.19s5.85-25.68,12.41-30.94c4.2-3.36,7.84-4.3,12.81-5.41,2.15-.47,4-1.8,6.3-2.23a20.31,20.31,0,0,1,7.73.1,32.33,32.33,0,0,1,13,6.38,27,27,0,0,1,7,7.41c1.16,1.94,1.82,4.66.22,6.25s-4.44.81-6-.73c-.56-.53-1.15-1.18-1.92-1.21a2.8,2.8,0,0,0-1.17.32c-5.22,2.52-7.9,7.28-10.73,12-.5.86-4.68,9.66-5.46,9.63Z" style="fill: #ffc9b0"/>
    <path d="M126.45,262.34h-.13l-34.07-1.67a1.46,1.46,0,0,1-1.36-1.81c.24-1.07,6-26.26,12.93-31.77,4.32-3.48,8.12-4.44,13.4-5.68a17.14,17.14,0,0,0,2.7-1,17.21,17.21,0,0,1,3.64-1.25,21.72,21.72,0,0,1,8.31.1,32.8,32.8,0,0,1,13.58,6.66,27.93,27.93,0,0,1,7.4,7.88c1.4,2.34,2.23,5.93,0,8.06s-5.92,1.33-8.08-.7l-.21-.19a3.46,3.46,0,0,0-.8-.61,2,2,0,0,0-.46.18c-4.63,2.24-7.15,6.47-9.8,11l-.3.48c-.12.2-.41.8-.83,1.63C128.4,261.38,127.65,262.34,126.45,262.34Zm-32.34-4.55,31.73,1.49c.91-1.29,3-5.43,3.81-7.07.46-.92.8-1.58.93-1.81l.3-.48c2.75-4.68,5.61-9.51,11.06-12.13a3.83,3.83,0,0,1,1.82-.39,4.14,4.14,0,0,1,2.71,1.48l.19.17c1.14,1.08,3.06,1.64,4,.74s.43-3-.46-4.45a25.34,25.34,0,0,0-6.64-7.05,30.35,30.35,0,0,0-12.38-6.1,18.75,18.75,0,0,0-7.16-.09,15.41,15.41,0,0,0-3,1.05,17.45,17.45,0,0,1-3.22,1.17c-5,1.12-8.37,2-12.21,5.11-4.71,3.72-9.55,20.38-11.5,28.36Z" style="fill: #093f68"/>
    <path d="M105.82,243.92s7-7.11,8.47-6.7,9.66,9,16.54,4.86c4.45-2.74,8.34.92,7.51-5.33S125,224.9,125,224.9" style="fill: #ffc9b0"/>
    <path d="M105.82,245.4a1.48,1.48,0,0,1-1-2.52c7.62-7.74,9.24-7.27,9.94-7.08a8.33,8.33,0,0,1,2.23,1.48c3,2.22,8.55,6.39,13.12,3.6a11,11,0,0,1,5.32-1.48,4.66,4.66,0,0,0,1.48-.22s.27-.36,0-2.19c-.59-4.45-9.17-9.19-12.42-10.62a1.48,1.48,0,1,1,1.21-2.71c1.35.59,13.22,6.06,14.14,12.93.3,2.2.09,3.54-.68,4.44a4.43,4.43,0,0,1-3.55,1.3,8.09,8.09,0,0,0-4,1c-6.28,3.83-13.14-1.3-16.44-3.76-.39-.28-.83-.62-1.13-.81a45.4,45.4,0,0,0-7.16,6.19A1.5,1.5,0,0,1,105.82,245.4Z" style="fill: #093f68"/>
    <path d="M130.83,243.56a1.49,1.49,0,0,1-1.48-1.39c-.52-8.32-12.63-12.48-12.75-12.53a1.48,1.48,0,0,1,.76-2.86l.19.06c.58.19,14.13,4.83,14.81,15.14a1.49,1.49,0,0,1-1.39,1.57h-.14Z" style="fill: #093f68"/>
    <path d="M140.33,241.61a6,6,0,0,1-3-.74,1.49,1.49,0,0,1-.57-2h0a1.48,1.48,0,0,1,2-.56,3,3,0,0,0,4.33-3.63,9.6,9.6,0,0,0-1.74-2.31c-.4-.43-.77-.83-1-1.2a22.57,22.57,0,0,0-7-5.28,1.48,1.48,0,0,1,1-2.78,1.23,1.23,0,0,1,.26.12,25,25,0,0,1,8.06,6.12c.25.31.56.66.9,1a11.08,11.08,0,0,1,2.35,3.32,6.12,6.12,0,0,1-1.8,6.57A6,6,0,0,1,140.33,241.61Z" style="fill: #093f68"/>
    <rect x="27.85" y="257.04" width="350.29" height="14.84" rx="7.42" style="fill: #fff"/>
    <path d="M370.73,273.37H35.27a8.89,8.89,0,1,1,0-17.77H370.73a8.89,8.89,0,1,1,0,17.77ZM35.27,258.56a5.93,5.93,0,1,0,0,11.85H370.73a5.93,5.93,0,1,0,0-11.85Z" style="fill: #093f68"/>
    <path d="M67.82,122.7S55,75.58,61.2,64.74s76.25-40.88,104.61-27.1,20,36.49,25.86,40.75,15,11.36,10.84,12.19-11.68,1.67-10.84,3,13,9.81,5.05,17.21S92.43,137.3,67.82,122.7Z" style="fill: #725858"/>
    <path d="M99,129.54c-12.88,0-24.91-1.39-32-5.57a1.4,1.4,0,0,1-.66-.88c-.54-1.94-12.92-47.85-6.48-59.09C67,51.63,138,22.53,166.46,36.3,186.78,46.17,189,61,190.29,69.79c.51,3.46,1,6.47,2.25,7.4,11,8,12.89,10.89,12.44,12.93a2.48,2.48,0,0,1-2.19,1.9c-1,.2-2.17.4-3.39.6-1.58.27-4,.67-5.43,1,2.4,2.21,6.9,6.52,6.91,11.48a8.9,8.9,0,0,1-3.15,6.62c-4.45,4.12-31.46,10.83-59,14.63A301.3,301.3,0,0,1,99,129.54Zm-29.93-7.82c25.18,13.92,119-5.06,126.61-12.1a5.91,5.91,0,0,0,2.22-4.44c0-3.83-4.18-7.68-6.19-9.52a9.61,9.61,0,0,1-1.3-1.33,1.85,1.85,0,0,1-.17-1.72c.63-1.48,2.74-1.9,8.65-3l3-.52c-.57-1-2.79-3.54-11.09-9.61-2.29-1.68-2.8-5.08-3.43-9.38-1.31-8.78-3.28-22.06-22.22-31.25-11.77-5.71-33.47-4.11-59.5,4.45-22.45,7.4-40.45,17.35-43.17,22.09C57.73,73.8,65.49,108.32,69.09,121.72Z" style="fill: #093f68"/>
    <path d="M111.68,174.5l17.78,3.62h0l-2.23,10.93a7.06,7.06,0,0,1-8.31,5.5l-4-.81a7.05,7.05,0,0,1-5.5-8.32l2.23-10.92Z" style="fill: #ffc9b0"/>
    <path d="M120.38,196.17a7.64,7.64,0,0,1-1.79-.24l-4-.81A8.53,8.53,0,0,1,108,185.06l2.22-10.91a1.48,1.48,0,0,1,1.75-1.16h0l17.77,3.62a1.47,1.47,0,0,1,1.15,1.75h0l-2.22,10.93a8.52,8.52,0,0,1-8.32,6.82Zm-7.53-19.92-1.92,9.47a5.57,5.57,0,0,0,4.34,6.56l4,.81h0a5.54,5.54,0,0,0,6.55-4.32v0l1.94-9.48Z" style="fill: #093f68"/>
    <path d="M196.68,133c-.66,8.4-9.39,19-19.11,18.21s-17-8.16-16.38-16.55,9.05-14.58,18.75-13.82S197.33,124.66,196.68,133Z" style="fill: #ffc9b0"/>
    <path d="M178.58,152.78h-1.11c-10.5-.81-18.47-9-17.77-18.14a15.58,15.58,0,0,1,6.57-11.42,20.4,20.4,0,0,1,13.78-3.76c5.67.43,9.9,1.48,12.91,3.43a10.36,10.36,0,0,1,5.18,10.37,22.92,22.92,0,0,1-6.57,13.45A18.34,18.34,0,0,1,178.58,152.78Zm-.25-30.48a17.23,17.23,0,0,0-10.28,3.26,12.7,12.7,0,0,0-5.39,9.26c-.58,7.56,6.16,14.27,15,15,5.44.43,9.7-3.09,11.85-5.22a20.14,20.14,0,0,0,5.73-11.62,7.57,7.57,0,0,0-3.79-7.58c-2.55-1.58-6.46-2.59-11.58-3A12.83,12.83,0,0,0,178.33,122.3Z" style="fill: #093f68"/>
    <path d="M124.15,181.63a53.32,53.32,0,0,1-48.87-57.28C76.1,114,77,106,85.5,99,90.7,94.65,96.77,90.24,98,83.6c2,3.07-1.34,7.33.2,10.64,1,2.07,3.46,3,5.71,3.31a49.12,49.12,0,0,0,48-19.07c2.66,5.12-2.48,11.85.07,17a8.23,8.23,0,0,0,6.81,4.16A18.9,18.9,0,0,0,166.89,98a64.31,64.31,0,0,0,12-6.33c3.07-2,4.45-3.92,5.57-.5s-.81,10.61-1.09,14.2l-2.12,27.19A53.32,53.32,0,0,1,124.15,181.63Z" style="fill: #ffc9b0"/>
    <path d="M128.34,183.27c-1.42,0-2.85-.06-4.3-.18a54.79,54.79,0,0,1-50.22-58.85c.74-9.64,1.48-18.73,10.73-26.42L86,96.65c4.7-3.83,9.56-7.8,10.58-13.33a1.48,1.48,0,0,1,1.71-1.2,1.53,1.53,0,0,1,1,.67c1.33,2.1.84,4.44.41,6.55a7.25,7.25,0,0,0-.13,4.25c.56,1.2,2,2,4.66,2.48a47.86,47.86,0,0,0,46.42-18.46,1.49,1.49,0,0,1,2.07-.34,1.65,1.65,0,0,1,.45.53c1.58,3,.87,6.34.19,9.51-.59,2.75-1.16,5.36-.11,7.4a6.79,6.79,0,0,0,5.6,3.33,17.58,17.58,0,0,0,7.5-1.48,65.75,65.75,0,0,0,11.77-6.19c.56-.37,1.07-.72,1.48-1.05,1.41-1,2.61-1.88,4-1.48a4,4,0,0,1,2.23,2.74c.94,2.75.2,7.06-.45,10.87-.27,1.48-.5,3-.59,3.94l-2.1,27.17a54.8,54.8,0,0,1-54.43,50.58Zm-32-92.63a47.32,47.32,0,0,1-8.56,8.29l-1.48,1.17c-7.76,6.43-8.89,13.49-9.67,24.36a51.83,51.83,0,0,0,47.51,55.69h0a51.84,51.84,0,0,0,55.53-47.67l2.12-27.18c.09-1.17.34-2.65.62-4.22.57-3.29,1.26-7.41.57-9.4a4.09,4.09,0,0,0-.34-.77,14.38,14.38,0,0,0-1.38.9c-.45.31-1,.75-1.66,1.14a67.83,67.83,0,0,1-12.31,6.47,20.5,20.5,0,0,1-8.78,1.66,9.67,9.67,0,0,1-8-5c-1.48-3-.79-6.27-.13-9.41a22.27,22.27,0,0,0,.7-4.88A50.36,50.36,0,0,1,103.54,99c-2.28-.45-5.48-1.35-6.78-4.15A7.43,7.43,0,0,1,96.37,90.64Z" style="fill: #093f68"/>
    <path d="M119.34,114.48h-.19L95.72,113a3,3,0,0,1,.38-5.92l23.43,1.48a3,3,0,1,1-.19,5.92Z" style="fill: #093f68"/>
    <path d="M173.91,118.54h-.25l-23.38-2a3,3,0,0,1,.5-5.93l23.39,2a3,3,0,0,1-.26,5.93Z" style="fill: #093f68"/>
    <path d="M135.48,147.27a29.48,29.48,0,0,1-6.41-.83,1.48,1.48,0,1,1,.74-2.87,22.84,22.84,0,0,0,7.32.63c.46-1.33-1-6.81-3.22-12a1.49,1.49,0,1,1,2.73-1.17c1.14,2.68,4.72,11.65,3,14.81a2.55,2.55,0,0,1-1.85,1.33A13,13,0,0,1,135.48,147.27Z" style="fill: #093f68"/>
    <path d="M88.49,119.41c-1,12.52,7.69,23.39,19.37,24.31s21.92-8.5,22.88-21Z" style="fill: #fff"/>
    <path d="M109.4,145.26a11.61,11.61,0,0,1-1.66-.08C95.28,144.22,86,132.61,87,119.31a1.53,1.53,0,0,1,.5-1A1.49,1.49,0,0,1,88.6,118l42.26,3.27a1.48,1.48,0,0,1,1.37,1.59h0C131.23,135.53,121.18,145.26,109.4,145.26ZM89.9,121c-.15,11,7.7,20.41,18.07,21.23s19.59-7.25,21.15-18.18Z" style="fill: #093f68"/>
    <path d="M139.08,123.18c-1,12.51,7.7,23.38,19.37,24.3s21.92-8.5,22.9-21Z" style="fill: #fff"/>
    <path d="M160.05,149h-1.66c-12.47-1-21.77-12.58-20.73-25.87a1.48,1.48,0,0,1,1.59-1.37h0l42.27,3.28a1.57,1.57,0,0,1,1,.51,1.49,1.49,0,0,1,.36,1.09C181.84,139.29,171.77,149,160.05,149Zm-19.56-24.17c-.15,11.05,7.7,20.41,18.08,21.22s19.58-7.24,21.13-18.17Z" style="fill: #093f68"/>
    <path d="M87,120.78a1.43,1.43,0,0,1-.83-.26l-9.48-6.38a1.48,1.48,0,0,1,1.66-2.46h0l9.48,6.39a1.49,1.49,0,0,1,.4,2.05h0A1.5,1.5,0,0,1,87,120.78Z" style="fill: #093f68"/>
    <path d="M139.08,124.85H139l-8.34-.59a1.49,1.49,0,0,1,.22-3l8.33.6a1.48,1.48,0,0,1-.11,3Z" style="fill: #093f68"/>
    <path d="M82.23,145.21c-9.7-.75-22-9.15-22-25.91,0-8.42,14.81-14.06,19.79-4.7" style="fill: #ffc9b0"/>
    <path d="M82.23,146.69h-.11a25.28,25.28,0,0,1-15.59-7.4,27.35,27.35,0,0,1-7.82-20c0-5.38,4.92-9.42,9.77-10.62,5.48-1.36,10.37.65,12.81,5.23a1.48,1.48,0,0,1-2.62,1.38c-2.62-5-7.9-4.12-9.47-3.74-3.65.91-7.53,3.93-7.53,7.75,0,8.89,5.62,23.27,20.74,24.44a1.48,1.48,0,0,1-.12,3Z" style="fill: #093f68"/>
    <path d="M135.62,162.94c-7.57,0-16-2.13-25.33-6.37l-1-.46a1.5,1.5,0,0,1,.31-3c.43,0,.68.12,1.94.7,12.78,5.83,23.86,7.49,32.91,4.93a1.48,1.48,0,1,1,1,2.8l-.15,0A35.17,35.17,0,0,1,135.62,162.94Z" style="fill: #093f68"/>
    <path d="M131.08,249.68h56.38v7.4H131.08a3.64,3.64,0,0,1-3.65-3.65h0a3.65,3.65,0,0,1,3.65-3.66h0Z" style="fill: #ffbc0e"/>
    <path d="M187.46,258.52H131.08a5.19,5.19,0,0,1,0-10.37h56.38a1.49,1.49,0,0,1,1.49,1.48V257a1.49,1.49,0,0,1-1.49,1.48Zm-56.38-7.4a2.22,2.22,0,0,0,0,4.44H186v-4.44Z" style="fill: #093f68"/>
    <rect x="187.46" y="249.69" width="121.07" height="7.36" style="fill: #ffbc0e"/>
    <path d="M308.53,258.52H187.46A1.48,1.48,0,0,1,186,257v-7.41a1.49,1.49,0,0,1,1.48-1.48H308.53a1.48,1.48,0,0,1,1.48,1.48V257A1.48,1.48,0,0,1,308.53,258.52Zm-119.58-3h118.1v-4.44H189Z" style="fill: #093f68"/>
    <polygon points="209.71 169.68 330.76 169.68 308.53 249.68 187.47 249.68 209.71 169.68" style="fill: #ffbc0e"/>
    <path d="M308.53,251.16H187.46a1.47,1.47,0,0,1-1.42-1.88l22.22-80a1.46,1.46,0,0,1,1.48-1.08H330.79a1.48,1.48,0,0,1,1.54,1.42,1.82,1.82,0,0,1-.06.46l-22.21,80A1.49,1.49,0,0,1,308.53,251.16Zm-119.11-3h118l21.41-77h-118Z" style="fill: #093f68"/>
    <path d="M160.17,228.52a1.49,1.49,0,0,1-1.48-1.34L156,200a1.48,1.48,0,0,1,1.32-1.63h0a1.48,1.48,0,0,1,1.62,1.33l2.74,27.24a1.48,1.48,0,0,1-1.32,1.62h-.15Z" style="fill: #093f68"/>
    <path d="M327.15,40.14H225.55a11.41,11.41,0,0,0-11.41,11.42h0v66.22a11.41,11.41,0,0,0,11.41,11.41H228v24.34l12.14-24.34h87a11.43,11.43,0,0,0,11.42-11.41V51.56A11.42,11.42,0,0,0,327.15,40.14Z" style="fill: #fff"/>
    <path d="M228,155h-.34a1.48,1.48,0,0,1-1.14-1.49V130.67h-1a12.9,12.9,0,0,1-12.89-12.89V51.56a12.9,12.9,0,0,1,12.89-12.9h101.6a12.92,12.92,0,0,1,12.9,12.9v66.22a12.9,12.9,0,0,1-12.9,12.89H241.08L229.35,154.2A1.5,1.5,0,0,1,228,155Zm-2.48-113.4a10,10,0,0,0-9.93,9.94v66.22a9.94,9.94,0,0,0,9.93,9.93H228a1.48,1.48,0,0,1,1.48,1.48v18.07l9.33-18.72a1.48,1.48,0,0,1,1.33-.83h87a9.94,9.94,0,0,0,9.94-9.93V51.56a10,10,0,0,0-9.94-9.94Z" style="fill: #093f68"/>
    <path d="M255.83,55.82H231.66a1.48,1.48,0,1,1,0-3h24.17a1.48,1.48,0,0,1,0,3Z" style="fill: #68e1fd"/>
    <path d="M249.53,63.71H239.16a1.48,1.48,0,1,1,0-3h10.37a1.48,1.48,0,0,1,0,3Z" style="fill: #dfeaef"/>
    <path d="M275.85,63.71H257.08a1.48,1.48,0,1,1,0-3h18.77a1.48,1.48,0,0,1,0,3Z" style="fill: #dfeaef"/>
    <path d="M316.23,63.71H282.17a1.48,1.48,0,1,1,0-3h34.06a1.48,1.48,0,0,1,0,3Z" style="fill: #68e1fd"/>
    <path d="M244.36,72H237.7a1.48,1.48,0,1,1,0-3h6.66a1.48,1.48,0,0,1,0,3Z" style="fill: #dfeaef"/>
    <path d="M268.3,72H249.53a1.48,1.48,0,1,1,0-3H268.3a1.48,1.48,0,1,1,0,3Z" style="fill: #68e1fd"/>
    <path d="M257.08,80.21H231.66a1.48,1.48,0,1,1,0-3h25.42a1.48,1.48,0,1,1,0,3Z" style="fill: #dfeaef"/>
    <path d="M273.7,80.21H263.26a1.48,1.48,0,0,1,0-3H273.7a1.48,1.48,0,1,1,0,3Z" style="fill: #68e1fd"/>
    <path d="M243.74,88h-5.42a1.48,1.48,0,1,1,0-3h5.42a1.48,1.48,0,0,1,0,3Z" style="fill: #68e1fd"/>
    <path d="M275,88H247.89a1.48,1.48,0,1,1,0-3H275a1.48,1.48,0,1,1,0,3Z" style="fill: #dfeaef"/>
    <path d="M305.56,88H279.62a1.48,1.48,0,0,1,0-3h25.94a1.48,1.48,0,1,1,0,3Z" style="fill: #68e1fd"/>
    <path d="M321.05,88H310.84a1.48,1.48,0,0,1,0-3h10.21a1.48,1.48,0,1,1,0,3Z" style="fill: #dfeaef"/>
    <path d="M252.92,96.37H231.66a1.48,1.48,0,1,1,0-3h21.26a1.48,1.48,0,1,1,0,3Z" style="fill: #68e1fd"/>
    <path d="M268.3,96.37h-9.39a1.48,1.48,0,0,1,0-3h9.39a1.48,1.48,0,1,1,0,3Z" style="fill: #68e1fd"/>
    <path d="M285.55,96.37H272.77a1.48,1.48,0,0,1,0-3h12.78a1.48,1.48,0,1,1,0,3Z" style="fill: #dfeaef"/>
    <path d="M255.32,104.47H237.7a1.48,1.48,0,1,1,0-3h17.62a1.48,1.48,0,1,1,0,3Z" style="fill: #68e1fd"/>
    <path d="M243.74,112H231.66a1.48,1.48,0,0,1,0-3h12.08a1.48,1.48,0,0,1,0,3Z" style="fill: #dfeaef"/>
    <path d="M261.42,111.52H249a1.48,1.48,0,1,1,0-3h12.39a1.48,1.48,0,1,1,0,3Z" style="fill: #68e1fd"/>
    <path d="M261.42,119.9h-23.1a1.48,1.48,0,1,1,0-3h23.1a1.48,1.48,0,1,1,0,3Z" style="fill: #68e1fd"/>
    <path d="M288.44,119.9h-22a1.48,1.48,0,0,1,0-3h22a1.48,1.48,0,1,1,0,3Z" style="fill: #68e1fd"/>
    <path d="M304.8,119.9H293.47a1.48,1.48,0,0,1,0-3H304.8a1.48,1.48,0,1,1,0,3Z" style="fill: #dfeaef"/>
    <path d="M339.71,240.22s-8.46-17.23-7.27-28.88a21.57,21.57,0,0,1,10.07,12.16c5,13.87,3.85,16.73,3.85,16.73Z" style="fill: #70cc40"/>
    <path d="M346.36,241.71h-6.65a1.47,1.47,0,0,1-1.32-.83c-.36-.71-8.63-17.77-7.41-29.62a1.5,1.5,0,0,1,.74-1.12,1.46,1.46,0,0,1,1.35,0,22.9,22.9,0,0,1,10.86,13c4.83,13.33,4.14,17,3.83,17.77A1.47,1.47,0,0,1,346.36,241.71Zm-5.7-3H345c-.08-1.66-.67-5.81-3.9-14.81a21.51,21.51,0,0,0-7.31-10.06c.1,9.51,5.36,21.63,6.93,24.87Z" style="fill: #093f68"/>
    <path d="M343.69,239.39s-6.35-24.57,2.77-41c0,0,5.26,6,6.52,20.56A36.91,36.91,0,0,1,349.19,239Z" style="fill: #70cc40"/>
    <path d="M343.69,240.87a1.48,1.48,0,0,1-1.48-1.11c-.27-1-6.38-25.34,3-42.12a1.48,1.48,0,0,1,2-.58,1.8,1.8,0,0,1,.4.33c.22.26,5.58,6.54,6.87,21.41a38,38,0,0,1-4,21,1.49,1.49,0,0,1-1.19.73l-5.49.37Zm3-39.56c-6.11,13.57-2.83,31.74-1.79,36.52l3.41-.22a36.6,36.6,0,0,0,3.26-18.56A43.68,43.68,0,0,0,346.65,201.31Z" style="fill: #093f68"/>
    <path d="M346.48,238.62s2-16.41,15.22-27.12c0,0,3.91,12.23-7.05,28.57Z" style="fill: #70cc40"/>
    <path d="M354.65,241.55h-.25l-8.19-1.48a1.5,1.5,0,0,1-1.22-1.65c.09-.69,2.21-17.12,15.78-28.13a1.48,1.48,0,0,1,2.34.69c.17.53,4,13.09-7.23,29.84A1.49,1.49,0,0,1,354.65,241.55Zm-6.52-4.15,5.78,1c7.11-11,7.23-20,6.77-24.12A44.33,44.33,0,0,0,348.13,237.4Z" style="fill: #093f68"/>
    <polygon points="355.55 257.04 338.86 257.04 336.4 236.74 358.03 236.74 355.55 257.04" style="fill: #f56132"/>
    <path d="M355.54,258.52H338.86a1.48,1.48,0,0,1-1.48-1.3l-2.47-20.31a1.51,1.51,0,0,1,1.48-1.66H358a1.47,1.47,0,0,1,1.11.51,1.46,1.46,0,0,1,.36,1.15L357,257.22A1.48,1.48,0,0,1,355.54,258.52Zm-15.37-3h14.05l2.12-17.34H338.06Z" style="fill: #093f68"/>
  </g>
</svg>
